<?xml version="1.0" standalone="no"?><!DOCTYPE svg PUBLIC "-//W3C//DTD SVG 1.1//EN" "http://www.w3.org/Graphics/SVG/1.1/DTD/svg11.dtd"><svg width="100%" height="100%" viewBox="0 0 16 16" version="1.1" xmlns="http://www.w3.org/2000/svg" xmlns:xlink="http://www.w3.org/1999/xlink" xml:space="preserve" style="fill-rule:evenodd;clip-rule:evenodd;stroke-linejoin:round;stroke-miterlimit:1.41421;"><path d="M2.045,2.105c0.002,-0.026 0.004,-0.05 0.008,-0.074c-0.004,0.022 -0.006,0.048 -0.008,0.074Z" style="fill:#fff;fill-rule:nonzero;"/><path d="M8.289,1.039c-0.022,0.016 -0.04,0.03 -0.056,0.04c-0.107,-0.086 -0.245,-0.096 -0.374,-0.12c-0.495,-0.102 -1.002,-0.134 -1.512,-0.128c-0.375,0.004 -0.748,0.032 -1.109,0.12c-0.383,0.096 -0.754,0.216 -1.073,0.436c-0.419,0.288 -0.599,0.674 -0.57,1.143c0.026,0.436 0.169,0.844 0.405,1.22c0.259,0.409 0.538,0.809 0.803,1.213c0.192,0.288 0.382,0.576 0.5,0.897c0.165,0.44 0.218,0.894 0.192,1.359c-0.018,0.328 -0.103,0.644 -0.192,0.96c-0.156,0.562 -0.324,1.121 -0.544,1.665c-0.081,0.196 -0.183,0.388 -0.257,0.589c-0.109,0.296 -0.154,0.606 -0.196,0.916c-0.096,0.725 -0.047,1.453 -0.069,2.181c-0.014,0.399 0.089,0.767 0.252,1.129c0.198,0.444 0.457,0.861 0.749,1.265c-0.049,-0.034 -0.1,-0.064 -0.149,-0.1c-0.052,-0.036 -0.105,-0.072 -0.152,-0.112c-0.218,-0.19 -0.446,-0.372 -0.647,-0.573c-0.412,-0.404 -0.738,-0.858 -0.932,-1.38c-0.123,-0.327 -0.172,-0.663 -0.183,-1.007c-0.022,-0.598 0.045,-1.189 0.174,-1.773c0.101,-0.464 0.223,-0.923 0.339,-1.381c0.101,-0.388 0.221,-0.77 0.31,-1.161c0.109,-0.464 0.154,-0.936 0.125,-1.411c-0.018,-0.288 -0.058,-0.576 -0.158,-0.852c-0.083,-0.22 -0.15,-0.446 -0.246,-0.661c-0.178,-0.408 -0.434,-0.778 -0.713,-1.134c-0.29,-0.368 -0.522,-0.767 -0.687,-1.193c-0.105,-0.278 -0.176,-0.566 -0.266,-0.849c-0.013,-0.04 -0.022,-0.084 -0.022,-0.128l0,-0.012c0,-0.032 0.002,-0.062 0.002,-0.092c0,-0.002 0,-0.002 0,-0.004c0.003,-0.024 0.007,-0.048 0.009,-0.074c0,-0.002 0,-0.006 0.003,-0.008c0.006,-0.054 0.017,-0.106 0.026,-0.16c0.081,-0.444 0.301,-0.828 0.665,-1.141c0.187,-0.164 0.392,-0.296 0.611,-0.402c0.033,-0.016 0.067,-0.03 0.103,-0.044l0,-0.002c0.013,-0.006 0.026,-0.012 0.04,-0.016c0.011,-0.004 0.02,-0.01 0.031,-0.012c0.013,-0.006 0.029,-0.012 0.042,-0.016c0.003,-0.002 0.007,-0.002 0.009,-0.004c0.018,-0.006 0.038,-0.012 0.056,-0.02c0.002,-0.002 0.007,-0.002 0.011,-0.004c0.014,-0.004 0.027,-0.008 0.04,-0.014l0.003,0c0.017,-0.006 0.035,-0.012 0.053,-0.016c0.018,-0.006 0.036,-0.012 0.056,-0.018c0.02,-0.006 0.035,-0.012 0.056,-0.016c0.037,-0.012 0.075,-0.02 0.113,-0.028c0.154,-0.036 0.31,-0.064 0.473,-0.08c0.016,-0.002 0.031,-0.004 0.049,-0.004c0.002,0 0.005,0 0.009,0c0.065,-0.004 0.127,-0.01 0.19,-0.018l0.002,0c0.004,0 0.009,-0.002 0.013,-0.002c0.002,0 0.005,0 0.009,-0.002l0.161,0c0.089,0.016 0.178,0.018 0.265,0.022c0.466,0.038 0.914,0.15 1.356,0.286c0.571,0.178 1.115,0.402 1.648,0.657c0.027,0.014 0.056,0.028 0.087,0.042c0.027,0.01 0.047,0.02 0.067,0.032Z" style="fill:#000;fill-rule:nonzero;"/><path d="M4.442,0.026c0.016,0 0.031,-0.002 0.049,-0.004c-0.016,0.002 -0.033,0.004 -0.049,0.004c-0.165,0.018 -0.321,0.044 -0.475,0.08c0.154,-0.036 0.312,-0.064 0.475,-0.08Z" style="fill:#fff;fill-rule:nonzero;"/><path d="M13.954,10.25c-0.02,0.373 -0.043,0.743 -0.096,1.113c-0.072,0.49 -0.165,0.977 -0.266,1.461c-0.149,0.708 -0.35,1.405 -0.595,2.091c-0.125,0.345 -0.279,0.681 -0.422,1.021c-0.006,0.024 -0.026,0.044 -0.042,0.064c-0.009,-0.002 -0.02,-0.004 -0.027,-0.004c0,-0.054 -0.004,-0.104 0,-0.158c0.052,-0.51 0.168,-1.011 0.261,-1.515c0.063,-0.322 0.114,-0.644 0.154,-0.969c0.056,-0.496 0.103,-0.992 0.138,-1.489c0.023,-0.294 0.034,-0.59 0.016,-0.882c-0.025,-0.366 -0.08,-0.731 -0.132,-1.099c-0.038,-0.264 -0.084,-0.53 -0.14,-0.792c-0.071,-0.333 -0.17,-0.657 -0.234,-0.989c-0.072,-0.362 -0.13,-0.724 -0.174,-1.091c-0.016,-0.124 0.004,-0.258 0.038,-0.38c0.082,-0.296 0.357,-0.302 0.562,-0.202c0.303,0.146 0.49,0.382 0.593,0.672c0.136,0.389 0.218,0.785 0.279,1.187c0.096,0.655 0.122,1.307 0.087,1.961Z" style="fill:#000;fill-rule:nonzero;"/><path d="M12.216,15.988c-0.006,0.004 -0.013,0.006 -0.022,0.01c-0.049,-0.084 -0.114,-0.164 -0.152,-0.252c-0.176,-0.42 -0.354,-0.839 -0.517,-1.263c-0.129,-0.342 -0.243,-0.688 -0.359,-1.033c-0.156,-0.466 -0.306,-0.936 -0.468,-1.4c-0.123,-0.341 -0.255,-0.681 -0.397,-1.017c-0.15,-0.35 -0.306,-0.697 -0.473,-1.039c-0.174,-0.352 -0.375,-0.696 -0.662,-0.986c-0.072,-0.072 -0.157,-0.138 -0.246,-0.194c-0.198,-0.125 -0.399,-0.101 -0.593,0.012c-0.228,0.132 -0.395,0.32 -0.549,0.518c-0.263,0.338 -0.479,0.7 -0.662,1.081c-0.219,0.45 -0.424,0.906 -0.62,1.364c-0.078,0.184 -0.123,0.385 -0.174,0.581c-0.105,0.39 -0.207,0.778 -0.308,1.17c-0.145,0.573 -0.29,1.145 -0.435,1.718c-0.04,0.16 -0.078,0.322 -0.131,0.482c-0.005,-0.06 -0.014,-0.122 -0.018,-0.182c-0.027,-0.525 -0.04,-1.051 0.009,-1.575c0.036,-0.374 0.073,-0.749 0.134,-1.125c0.1,-0.61 0.261,-1.209 0.468,-1.797c0.176,-0.494 0.384,-0.977 0.629,-1.445c0.243,-0.466 0.517,-0.919 0.827,-1.351c0.127,-0.178 0.257,-0.358 0.402,-0.52c0.198,-0.224 0.452,-0.368 0.791,-0.348c0.232,0.012 0.429,0.106 0.62,0.222c0.248,0.15 0.411,0.36 0.562,0.584c0.406,0.599 0.732,1.233 1.009,1.889c0.218,0.529 0.417,1.065 0.564,1.611c0.154,0.569 0.292,1.137 0.417,1.707c0.129,0.599 0.218,1.203 0.283,1.812c0.025,0.236 0.045,0.472 0.067,0.71c0.004,0.016 0.002,0.036 0.004,0.056Z" style="fill:#000;fill-rule:nonzero;"/><path d="M4.712,0c-0.007,0 -0.014,0.002 -0.022,0.002c0.004,0 0.008,-0.002 0.013,-0.002l0.009,0Z" style="fill:#fff;fill-rule:nonzero;"/><path d="M13.878,2.031c-0.034,0.116 -0.087,0.23 -0.154,0.336c-0.103,0.163 -0.301,0.157 -0.424,0.004c-0.12,-0.148 -0.232,-0.306 -0.374,-0.436c-0.286,-0.262 -0.647,-0.356 -1.051,-0.32c-0.508,0.044 -0.99,0.172 -1.452,0.356c-0.334,0.136 -0.658,0.294 -0.99,0.443c-0.437,0.194 -0.896,0.326 -1.378,0.4c-0.266,0.04 -0.529,0.072 -0.796,0.026c-0.451,-0.074 -0.823,-0.266 -1.106,-0.593c-0.007,-0.006 -0.012,-0.016 -0.029,-0.042c0.45,0.229 0.912,0.247 1.387,0.174c0.468,-0.074 0.907,-0.222 1.322,-0.424c0.538,-0.264 1.068,-0.54 1.604,-0.81c0.229,-0.116 0.457,-0.234 0.696,-0.328c0.33,-0.131 0.675,-0.211 1.034,-0.253c0.284,-0.036 0.567,-0.036 0.848,0.022c0.379,0.078 0.667,0.263 0.856,0.569c0.011,0.018 0.018,0.04 0.022,0.06c0.045,0.272 0.061,0.546 -0.015,0.816Z" style="fill:#000;fill-rule:nonzero;"/></svg>